<?xml version="1.0" encoding="UTF-8"?>
<svg xmlns="http://www.w3.org/2000/svg" width="120" height="120" viewBox="0 0 120 120" fill="none">
  <rect x="4" y="4" width="112" height="112" rx="28" fill="white"/>
  <g transform="translate(22.5 0)">
    <path d="M57.0094 22.5208C47.2419 22.0701 39.0283 28.9945 37.627 38.1178C37.5715 38.5412 37.4883 38.951 37.4189 39.3607C35.2406 50.7239 25.0986 59.3282 12.9169 59.3282C8.5743 59.3282 4.49526 58.2356 0.943451 56.3235C0.513348 56.0913 0 56.3918 0 56.8698V59.3145V96.1492H37.405V68.5334C37.405 63.4528 41.5951 59.3282 46.7563 59.3282H56.1075C66.6936 59.3282 75.2124 50.6829 74.7962 40.1665C74.4216 30.7017 66.6242 22.9715 57.0094 22.5208Z" fill="#070B10"/>
  </g>
</svg>
